<?xml version="1.0" encoding="UTF-8" standalone="no"?>
<!DOCTYPE svg PUBLIC "-//W3C//DTD SVG 1.1//EN"
 "http://www.w3.org/Graphics/SVG/1.1/DTD/svg11.dtd">
<!-- Generated by graphviz version 2.38.0 (20140413.2041)
 -->
<!-- Title: controllers_diagram Pages: 1 -->
<svg width="789pt" height="925pt"
 viewBox="0.00 0.00 789.00 924.50" xmlns="http://www.w3.org/2000/svg" xmlns:xlink="http://www.w3.org/1999/xlink">
<g id="graph0" class="graph" transform="scale(1 1) rotate(0) translate(346 560)">
<title>controllers_diagram</title>
<polygon fill="none" stroke="none" points="-346,364.5 -346,-560 443,-560 443,364.5 -346,364.5"/>
<!-- _diagram_info -->
<g id="node1" class="node"><title>_diagram_info</title>
<text text-anchor="start" x="8" y="164.4" font-family="Times,serif" font-size="13.00">Controllers diagram</text>
<text text-anchor="start" x="8" y="178.4" font-family="Times,serif" font-size="13.00">Date: Dec 15 2018 &#45; 16:56</text>
<text text-anchor="start" x="8" y="192.4" font-family="Times,serif" font-size="13.00">Migration version: 20181215151249</text>
<text text-anchor="start" x="8" y="206.4" font-family="Times,serif" font-size="13.00">Generated by RailRoady 1.5.3</text>
<text text-anchor="start" x="8" y="220.4" font-family="Times,serif" font-size="13.00">http://railroady.prestonlee.com</text>
</g>
<!-- SignupsController -->
<g id="node2" class="node"><title>SignupsController</title>
<path fill="none" stroke="black" d="M335,56.5C335,56.5 427,56.5 427,56.5 433,56.5 439,50.5 439,44.5 439,44.5 439,-144.5 439,-144.5 439,-150.5 433,-156.5 427,-156.5 427,-156.5 335,-156.5 335,-156.5 329,-156.5 323,-150.5 323,-144.5 323,-144.5 323,44.5 323,44.5 323,50.5 329,56.5 335,56.5"/>
<text text-anchor="middle" x="381" y="-141.3" font-family="Times,serif" font-size="14.00">SignupsController</text>
<polyline fill="none" stroke="black" points="323,-133.5 439,-133.5 "/>
<text text-anchor="start" x="331" y="-118.3" font-family="Times,serif" font-size="14.00">create</text>
<text text-anchor="start" x="331" y="-103.3" font-family="Times,serif" font-size="14.00">destroy</text>
<text text-anchor="start" x="331" y="-88.3" font-family="Times,serif" font-size="14.00">edit</text>
<text text-anchor="start" x="331" y="-73.3" font-family="Times,serif" font-size="14.00">index</text>
<text text-anchor="start" x="331" y="-58.3" font-family="Times,serif" font-size="14.00">new</text>
<text text-anchor="start" x="331" y="-43.3" font-family="Times,serif" font-size="14.00">show</text>
<text text-anchor="start" x="331" y="-28.3" font-family="Times,serif" font-size="14.00">update</text>
<polyline fill="none" stroke="black" points="323,-20.5 439,-20.5 "/>
<polyline fill="none" stroke="black" points="323,3.5 439,3.5 "/>
<text text-anchor="start" x="331" y="18.7" font-family="Times,serif" font-size="14.00">_layout</text>
<text text-anchor="start" x="331" y="33.7" font-family="Times,serif" font-size="14.00">set_signup</text>
<text text-anchor="start" x="331" y="48.7" font-family="Times,serif" font-size="14.00">signup_params</text>
</g>
<!-- PublishersController -->
<g id="node3" class="node"><title>PublishersController</title>
<path fill="none" stroke="black" d="M-26,-133.5C-26,-133.5 78,-133.5 78,-133.5 84,-133.5 90,-139.5 90,-145.5 90,-145.5 90,-334.5 90,-334.5 90,-340.5 84,-346.5 78,-346.5 78,-346.5 -26,-346.5 -26,-346.5 -32,-346.5 -38,-340.5 -38,-334.5 -38,-334.5 -38,-145.5 -38,-145.5 -38,-139.5 -32,-133.5 -26,-133.5"/>
<text text-anchor="middle" x="26" y="-331.3" font-family="Times,serif" font-size="14.00">PublishersController</text>
<polyline fill="none" stroke="black" points="-38,-323.5 90,-323.5 "/>
<text text-anchor="start" x="-30" y="-308.3" font-family="Times,serif" font-size="14.00">create</text>
<text text-anchor="start" x="-30" y="-293.3" font-family="Times,serif" font-size="14.00">destroy</text>
<text text-anchor="start" x="-30" y="-278.3" font-family="Times,serif" font-size="14.00">edit</text>
<text text-anchor="start" x="-30" y="-263.3" font-family="Times,serif" font-size="14.00">index</text>
<text text-anchor="start" x="-30" y="-248.3" font-family="Times,serif" font-size="14.00">new</text>
<text text-anchor="start" x="-30" y="-233.3" font-family="Times,serif" font-size="14.00">show</text>
<text text-anchor="start" x="-30" y="-218.3" font-family="Times,serif" font-size="14.00">update</text>
<polyline fill="none" stroke="black" points="-38,-210.5 90,-210.5 "/>
<polyline fill="none" stroke="black" points="-38,-186.5 90,-186.5 "/>
<text text-anchor="start" x="-30" y="-171.3" font-family="Times,serif" font-size="14.00">_layout</text>
<text text-anchor="start" x="-30" y="-156.3" font-family="Times,serif" font-size="14.00">publisher_params</text>
<text text-anchor="start" x="-30" y="-141.3" font-family="Times,serif" font-size="14.00">set_publisher</text>
</g>
<!-- NewslettersController -->
<g id="node4" class="node"><title>NewslettersController</title>
<path fill="none" stroke="black" d="M-197,-209.5C-197,-209.5 -85,-209.5 -85,-209.5 -79,-209.5 -73,-215.5 -73,-221.5 -73,-221.5 -73,-410.5 -73,-410.5 -73,-416.5 -79,-422.5 -85,-422.5 -85,-422.5 -197,-422.5 -197,-422.5 -203,-422.5 -209,-416.5 -209,-410.5 -209,-410.5 -209,-221.5 -209,-221.5 -209,-215.5 -203,-209.5 -197,-209.5"/>
<text text-anchor="middle" x="-141" y="-407.3" font-family="Times,serif" font-size="14.00">NewslettersController</text>
<polyline fill="none" stroke="black" points="-209,-399.5 -73,-399.5 "/>
<text text-anchor="start" x="-201" y="-384.3" font-family="Times,serif" font-size="14.00">create</text>
<text text-anchor="start" x="-201" y="-369.3" font-family="Times,serif" font-size="14.00">destroy</text>
<text text-anchor="start" x="-201" y="-354.3" font-family="Times,serif" font-size="14.00">edit</text>
<text text-anchor="start" x="-201" y="-339.3" font-family="Times,serif" font-size="14.00">index</text>
<text text-anchor="start" x="-201" y="-324.3" font-family="Times,serif" font-size="14.00">new</text>
<text text-anchor="start" x="-201" y="-309.3" font-family="Times,serif" font-size="14.00">show</text>
<text text-anchor="start" x="-201" y="-294.3" font-family="Times,serif" font-size="14.00">update</text>
<polyline fill="none" stroke="black" points="-209,-286.5 -73,-286.5 "/>
<polyline fill="none" stroke="black" points="-209,-262.5 -73,-262.5 "/>
<text text-anchor="start" x="-201" y="-247.3" font-family="Times,serif" font-size="14.00">_layout</text>
<text text-anchor="start" x="-201" y="-232.3" font-family="Times,serif" font-size="14.00">newsletter_params</text>
<text text-anchor="start" x="-201" y="-217.3" font-family="Times,serif" font-size="14.00">set_newsletter</text>
</g>
<!-- WishlistsController -->
<g id="node5" class="node"><title>WishlistsController</title>
<path fill="none" stroke="black" d="M-234.5,37.5C-234.5,37.5 -135.5,37.5 -135.5,37.5 -129.5,37.5 -123.5,31.5 -123.5,25.5 -123.5,25.5 -123.5,-163.5 -123.5,-163.5 -123.5,-169.5 -129.5,-175.5 -135.5,-175.5 -135.5,-175.5 -234.5,-175.5 -234.5,-175.5 -240.5,-175.5 -246.5,-169.5 -246.5,-163.5 -246.5,-163.5 -246.5,25.5 -246.5,25.5 -246.5,31.5 -240.5,37.5 -234.5,37.5"/>
<text text-anchor="middle" x="-185" y="-160.3" font-family="Times,serif" font-size="14.00">WishlistsController</text>
<polyline fill="none" stroke="black" points="-246.5,-152.5 -123.5,-152.5 "/>
<text text-anchor="start" x="-238.5" y="-137.3" font-family="Times,serif" font-size="14.00">create</text>
<text text-anchor="start" x="-238.5" y="-122.3" font-family="Times,serif" font-size="14.00">destroy</text>
<text text-anchor="start" x="-238.5" y="-107.3" font-family="Times,serif" font-size="14.00">edit</text>
<text text-anchor="start" x="-238.5" y="-92.3" font-family="Times,serif" font-size="14.00">index</text>
<text text-anchor="start" x="-238.5" y="-77.3" font-family="Times,serif" font-size="14.00">new</text>
<text text-anchor="start" x="-238.5" y="-62.3" font-family="Times,serif" font-size="14.00">show</text>
<text text-anchor="start" x="-238.5" y="-47.3" font-family="Times,serif" font-size="14.00">update</text>
<polyline fill="none" stroke="black" points="-246.5,-39.5 -123.5,-39.5 "/>
<polyline fill="none" stroke="black" points="-246.5,-15.5 -123.5,-15.5 "/>
<text text-anchor="start" x="-238.5" y="-0.3" font-family="Times,serif" font-size="14.00">_layout</text>
<text text-anchor="start" x="-238.5" y="14.7" font-family="Times,serif" font-size="14.00">set_wishlist</text>
<text text-anchor="start" x="-238.5" y="29.7" font-family="Times,serif" font-size="14.00">wishlist_params</text>
</g>
<!-- OrdersController -->
<g id="node6" class="node"><title>OrdersController</title>
<path fill="none" stroke="black" d="M335.5,-190.5C335.5,-190.5 420.5,-190.5 420.5,-190.5 426.5,-190.5 432.5,-196.5 432.5,-202.5 432.5,-202.5 432.5,-391.5 432.5,-391.5 432.5,-397.5 426.5,-403.5 420.5,-403.5 420.5,-403.5 335.5,-403.5 335.5,-403.5 329.5,-403.5 323.5,-397.5 323.5,-391.5 323.5,-391.5 323.5,-202.5 323.5,-202.5 323.5,-196.5 329.5,-190.5 335.5,-190.5"/>
<text text-anchor="middle" x="378" y="-388.3" font-family="Times,serif" font-size="14.00">OrdersController</text>
<polyline fill="none" stroke="black" points="323.5,-380.5 432.5,-380.5 "/>
<text text-anchor="start" x="331.5" y="-365.3" font-family="Times,serif" font-size="14.00">create</text>
<text text-anchor="start" x="331.5" y="-350.3" font-family="Times,serif" font-size="14.00">destroy</text>
<text text-anchor="start" x="331.5" y="-335.3" font-family="Times,serif" font-size="14.00">edit</text>
<text text-anchor="start" x="331.5" y="-320.3" font-family="Times,serif" font-size="14.00">index</text>
<text text-anchor="start" x="331.5" y="-305.3" font-family="Times,serif" font-size="14.00">new</text>
<text text-anchor="start" x="331.5" y="-290.3" font-family="Times,serif" font-size="14.00">show</text>
<text text-anchor="start" x="331.5" y="-275.3" font-family="Times,serif" font-size="14.00">update</text>
<polyline fill="none" stroke="black" points="323.5,-267.5 432.5,-267.5 "/>
<polyline fill="none" stroke="black" points="323.5,-243.5 432.5,-243.5 "/>
<text text-anchor="start" x="331.5" y="-228.3" font-family="Times,serif" font-size="14.00">_layout</text>
<text text-anchor="start" x="331.5" y="-213.3" font-family="Times,serif" font-size="14.00">order_params</text>
<text text-anchor="start" x="331.5" y="-198.3" font-family="Times,serif" font-size="14.00">set_order</text>
</g>
<!-- MailsController -->
<g id="node7" class="node"><title>MailsController</title>
<path fill="none" stroke="black" d="M-330,-342.5C-330,-342.5 -250,-342.5 -250,-342.5 -244,-342.5 -238,-348.5 -238,-354.5 -238,-354.5 -238,-543.5 -238,-543.5 -238,-549.5 -244,-555.5 -250,-555.5 -250,-555.5 -330,-555.5 -330,-555.5 -336,-555.5 -342,-549.5 -342,-543.5 -342,-543.5 -342,-354.5 -342,-354.5 -342,-348.5 -336,-342.5 -330,-342.5"/>
<text text-anchor="middle" x="-290" y="-540.3" font-family="Times,serif" font-size="14.00">MailsController</text>
<polyline fill="none" stroke="black" points="-342,-532.5 -238,-532.5 "/>
<text text-anchor="start" x="-334" y="-517.3" font-family="Times,serif" font-size="14.00">create</text>
<text text-anchor="start" x="-334" y="-502.3" font-family="Times,serif" font-size="14.00">destroy</text>
<text text-anchor="start" x="-334" y="-487.3" font-family="Times,serif" font-size="14.00">edit</text>
<text text-anchor="start" x="-334" y="-472.3" font-family="Times,serif" font-size="14.00">index</text>
<text text-anchor="start" x="-334" y="-457.3" font-family="Times,serif" font-size="14.00">new</text>
<text text-anchor="start" x="-334" y="-442.3" font-family="Times,serif" font-size="14.00">show</text>
<text text-anchor="start" x="-334" y="-427.3" font-family="Times,serif" font-size="14.00">update</text>
<polyline fill="none" stroke="black" points="-342,-419.5 -238,-419.5 "/>
<polyline fill="none" stroke="black" points="-342,-395.5 -238,-395.5 "/>
<text text-anchor="start" x="-334" y="-380.3" font-family="Times,serif" font-size="14.00">_layout</text>
<text text-anchor="start" x="-334" y="-365.3" font-family="Times,serif" font-size="14.00">mail_params</text>
<text text-anchor="start" x="-334" y="-350.3" font-family="Times,serif" font-size="14.00">set_mail</text>
</g>
<!-- CustomersController -->
<g id="node8" class="node"><title>CustomersController</title>
<path fill="none" stroke="black" d="M-272.5,284.5C-272.5,284.5 -165.5,284.5 -165.5,284.5 -159.5,284.5 -153.5,278.5 -153.5,272.5 -153.5,272.5 -153.5,83.5 -153.5,83.5 -153.5,77.5 -159.5,71.5 -165.5,71.5 -165.5,71.5 -272.5,71.5 -272.5,71.5 -278.5,71.5 -284.5,77.5 -284.5,83.5 -284.5,83.5 -284.5,272.5 -284.5,272.5 -284.5,278.5 -278.5,284.5 -272.5,284.5"/>
<text text-anchor="middle" x="-219" y="86.7" font-family="Times,serif" font-size="14.00">CustomersController</text>
<polyline fill="none" stroke="black" points="-284.5,94.5 -153.5,94.5 "/>
<text text-anchor="start" x="-276.5" y="109.7" font-family="Times,serif" font-size="14.00">create</text>
<text text-anchor="start" x="-276.5" y="124.7" font-family="Times,serif" font-size="14.00">destroy</text>
<text text-anchor="start" x="-276.5" y="139.7" font-family="Times,serif" font-size="14.00">edit</text>
<text text-anchor="start" x="-276.5" y="154.7" font-family="Times,serif" font-size="14.00">index</text>
<text text-anchor="start" x="-276.5" y="169.7" font-family="Times,serif" font-size="14.00">new</text>
<text text-anchor="start" x="-276.5" y="184.7" font-family="Times,serif" font-size="14.00">show</text>
<text text-anchor="start" x="-276.5" y="199.7" font-family="Times,serif" font-size="14.00">update</text>
<polyline fill="none" stroke="black" points="-284.5,207.5 -153.5,207.5 "/>
<polyline fill="none" stroke="black" points="-284.5,231.5 -153.5,231.5 "/>
<text text-anchor="start" x="-276.5" y="246.7" font-family="Times,serif" font-size="14.00">_layout</text>
<text text-anchor="start" x="-276.5" y="261.7" font-family="Times,serif" font-size="14.00">customer_params</text>
<text text-anchor="start" x="-276.5" y="276.7" font-family="Times,serif" font-size="14.00">set_customer</text>
</g>
<!-- ProductsController -->
<g id="node9" class="node"><title>ProductsController</title>
<path fill="none" stroke="black" d="M316.5,303.5C316.5,303.5 411.5,303.5 411.5,303.5 417.5,303.5 423.5,297.5 423.5,291.5 423.5,291.5 423.5,102.5 423.5,102.5 423.5,96.5 417.5,90.5 411.5,90.5 411.5,90.5 316.5,90.5 316.5,90.5 310.5,90.5 304.5,96.5 304.5,102.5 304.5,102.5 304.5,291.5 304.5,291.5 304.5,297.5 310.5,303.5 316.5,303.5"/>
<text text-anchor="middle" x="364" y="105.7" font-family="Times,serif" font-size="14.00">ProductsController</text>
<polyline fill="none" stroke="black" points="304.5,113.5 423.5,113.5 "/>
<text text-anchor="start" x="312.5" y="128.7" font-family="Times,serif" font-size="14.00">create</text>
<text text-anchor="start" x="312.5" y="143.7" font-family="Times,serif" font-size="14.00">destroy</text>
<text text-anchor="start" x="312.5" y="158.7" font-family="Times,serif" font-size="14.00">edit</text>
<text text-anchor="start" x="312.5" y="173.7" font-family="Times,serif" font-size="14.00">index</text>
<text text-anchor="start" x="312.5" y="188.7" font-family="Times,serif" font-size="14.00">new</text>
<text text-anchor="start" x="312.5" y="203.7" font-family="Times,serif" font-size="14.00">show</text>
<text text-anchor="start" x="312.5" y="218.7" font-family="Times,serif" font-size="14.00">update</text>
<polyline fill="none" stroke="black" points="304.5,226.5 423.5,226.5 "/>
<polyline fill="none" stroke="black" points="304.5,250.5 423.5,250.5 "/>
<text text-anchor="start" x="312.5" y="265.7" font-family="Times,serif" font-size="14.00">_layout</text>
<text text-anchor="start" x="312.5" y="280.7" font-family="Times,serif" font-size="14.00">product_params</text>
<text text-anchor="start" x="312.5" y="295.7" font-family="Times,serif" font-size="14.00">set_product</text>
</g>
<!-- ProductTypesController -->
<g id="node10" class="node"><title>ProductTypesController</title>
<path fill="none" stroke="black" d="M145.5,-133.5C145.5,-133.5 268.5,-133.5 268.5,-133.5 274.5,-133.5 280.5,-139.5 280.5,-145.5 280.5,-145.5 280.5,-334.5 280.5,-334.5 280.5,-340.5 274.5,-346.5 268.5,-346.5 268.5,-346.5 145.5,-346.5 145.5,-346.5 139.5,-346.5 133.5,-340.5 133.5,-334.5 133.5,-334.5 133.5,-145.5 133.5,-145.5 133.5,-139.5 139.5,-133.5 145.5,-133.5"/>
<text text-anchor="middle" x="207" y="-331.3" font-family="Times,serif" font-size="14.00">ProductTypesController</text>
<polyline fill="none" stroke="black" points="133.5,-323.5 280.5,-323.5 "/>
<text text-anchor="start" x="141.5" y="-308.3" font-family="Times,serif" font-size="14.00">create</text>
<text text-anchor="start" x="141.5" y="-293.3" font-family="Times,serif" font-size="14.00">destroy</text>
<text text-anchor="start" x="141.5" y="-278.3" font-family="Times,serif" font-size="14.00">edit</text>
<text text-anchor="start" x="141.5" y="-263.3" font-family="Times,serif" font-size="14.00">index</text>
<text text-anchor="start" x="141.5" y="-248.3" font-family="Times,serif" font-size="14.00">new</text>
<text text-anchor="start" x="141.5" y="-233.3" font-family="Times,serif" font-size="14.00">show</text>
<text text-anchor="start" x="141.5" y="-218.3" font-family="Times,serif" font-size="14.00">update</text>
<polyline fill="none" stroke="black" points="133.5,-210.5 280.5,-210.5 "/>
<polyline fill="none" stroke="black" points="133.5,-186.5 280.5,-186.5 "/>
<text text-anchor="start" x="141.5" y="-171.3" font-family="Times,serif" font-size="14.00">_layout</text>
<text text-anchor="start" x="141.5" y="-156.3" font-family="Times,serif" font-size="14.00">product_type_params</text>
<text text-anchor="start" x="141.5" y="-141.3" font-family="Times,serif" font-size="14.00">set_product_type</text>
</g>
<!-- ApplicationController -->
<g id="node11" class="node"><title>ApplicationController</title>
<path fill="none" stroke="black" d="M12,360C12,360 124,360 124,360 130,360 136,354 136,348 136,348 136,278 136,278 136,272 130,266 124,266 124,266 12,266 12,266 6,266 0,272 0,278 0,278 0,348 0,348 0,354 6,360 12,360"/>
<text text-anchor="middle" x="68" y="281.2" font-family="Times,serif" font-size="14.00">ApplicationController</text>
<polyline fill="none" stroke="black" points="0,289 136,289 "/>
<polyline fill="none" stroke="black" points="0,313 136,313 "/>
<polyline fill="none" stroke="black" points="0,337 136,337 "/>
<text text-anchor="start" x="8" y="352.2" font-family="Times,serif" font-size="14.00">_layout</text>
</g>
<!-- WishlistsProductsController -->
<g id="node12" class="node"><title>WishlistsProductsController</title>
<path fill="none" stroke="black" d="M-83,113.5C-83,113.5 63,113.5 63,113.5 69,113.5 75,107.5 75,101.5 75,101.5 75,-87.5 75,-87.5 75,-93.5 69,-99.5 63,-99.5 63,-99.5 -83,-99.5 -83,-99.5 -89,-99.5 -95,-93.5 -95,-87.5 -95,-87.5 -95,101.5 -95,101.5 -95,107.5 -89,113.5 -83,113.5"/>
<text text-anchor="middle" x="-10" y="-84.3" font-family="Times,serif" font-size="14.00">WishlistsProductsController</text>
<polyline fill="none" stroke="black" points="-95,-76.5 75,-76.5 "/>
<text text-anchor="start" x="-87" y="-61.3" font-family="Times,serif" font-size="14.00">create</text>
<text text-anchor="start" x="-87" y="-46.3" font-family="Times,serif" font-size="14.00">destroy</text>
<text text-anchor="start" x="-87" y="-31.3" font-family="Times,serif" font-size="14.00">edit</text>
<text text-anchor="start" x="-87" y="-16.3" font-family="Times,serif" font-size="14.00">index</text>
<text text-anchor="start" x="-87" y="-1.3" font-family="Times,serif" font-size="14.00">new</text>
<text text-anchor="start" x="-87" y="13.7" font-family="Times,serif" font-size="14.00">show</text>
<text text-anchor="start" x="-87" y="28.7" font-family="Times,serif" font-size="14.00">update</text>
<polyline fill="none" stroke="black" points="-95,36.5 75,36.5 "/>
<polyline fill="none" stroke="black" points="-95,60.5 75,60.5 "/>
<text text-anchor="start" x="-87" y="75.7" font-family="Times,serif" font-size="14.00">_layout</text>
<text text-anchor="start" x="-87" y="90.7" font-family="Times,serif" font-size="14.00">set_wishlists_product</text>
<text text-anchor="start" x="-87" y="105.7" font-family="Times,serif" font-size="14.00">wishlists_product_params</text>
</g>
<!-- OrdersProductsController -->
<g id="node13" class="node"><title>OrdersProductsController</title>
<path fill="none" stroke="black" d="M126,113.5C126,113.5 258,113.5 258,113.5 264,113.5 270,107.5 270,101.5 270,101.5 270,-87.5 270,-87.5 270,-93.5 264,-99.5 258,-99.5 258,-99.5 126,-99.5 126,-99.5 120,-99.5 114,-93.5 114,-87.5 114,-87.5 114,101.5 114,101.5 114,107.5 120,113.5 126,113.5"/>
<text text-anchor="middle" x="192" y="-84.3" font-family="Times,serif" font-size="14.00">OrdersProductsController</text>
<polyline fill="none" stroke="black" points="114,-76.5 270,-76.5 "/>
<text text-anchor="start" x="122" y="-61.3" font-family="Times,serif" font-size="14.00">create</text>
<text text-anchor="start" x="122" y="-46.3" font-family="Times,serif" font-size="14.00">destroy</text>
<text text-anchor="start" x="122" y="-31.3" font-family="Times,serif" font-size="14.00">edit</text>
<text text-anchor="start" x="122" y="-16.3" font-family="Times,serif" font-size="14.00">index</text>
<text text-anchor="start" x="122" y="-1.3" font-family="Times,serif" font-size="14.00">new</text>
<text text-anchor="start" x="122" y="13.7" font-family="Times,serif" font-size="14.00">show</text>
<text text-anchor="start" x="122" y="28.7" font-family="Times,serif" font-size="14.00">update</text>
<polyline fill="none" stroke="black" points="114,36.5 270,36.5 "/>
<polyline fill="none" stroke="black" points="114,60.5 270,60.5 "/>
<text text-anchor="start" x="122" y="75.7" font-family="Times,serif" font-size="14.00">_layout</text>
<text text-anchor="start" x="122" y="90.7" font-family="Times,serif" font-size="14.00">orders_product_params</text>
<text text-anchor="start" x="122" y="105.7" font-family="Times,serif" font-size="14.00">set_orders_product</text>
</g>
</g>
</svg>
