<?xml version="1.0" encoding="UTF-8" standalone="no"?>
<!DOCTYPE svg PUBLIC "-//W3C//DTD SVG 1.1//EN"
 "http://www.w3.org/Graphics/SVG/1.1/DTD/svg11.dtd">
<!-- Generated by graphviz version 2.38.0 (20140413.2041)
 -->
<!-- Title: models_diagram Pages: 1 -->
<svg width="1081pt" height="920pt"
 viewBox="0.00 0.00 1080.59 920.00" xmlns="http://www.w3.org/2000/svg" xmlns:xlink="http://www.w3.org/1999/xlink">
<g id="graph0" class="graph" transform="scale(1 1) rotate(0) translate(4 916)">
<title>models_diagram</title>
<polygon fill="none" stroke="none" points="-4,4 -4,-916 1076.59,-916 1076.59,4 -4,4"/>
<!-- _diagram_info -->
<g id="node1" class="node"><title>_diagram_info</title>
<text text-anchor="start" x="99.594" y="-890.6" font-family="Times,serif" font-size="13.00">Models diagram</text>
<text text-anchor="start" x="99.594" y="-876.6" font-family="Times,serif" font-size="13.00">Date: Dec 15 2018 &#45; 16:56</text>
<text text-anchor="start" x="99.594" y="-862.6" font-family="Times,serif" font-size="13.00">Migration version: 20181215151249</text>
<text text-anchor="start" x="99.594" y="-848.6" font-family="Times,serif" font-size="13.00">Generated by RailRoady 1.5.3</text>
<text text-anchor="start" x="99.594" y="-834.6" font-family="Times,serif" font-size="13.00">http://railroady.prestonlee.com</text>
</g>
<!-- Mail -->
<g id="node2" class="node"><title>Mail</title>
<path fill="none" stroke="black" d="M840.594,-512C840.594,-512 1060.59,-512 1060.59,-512 1066.59,-512 1072.59,-518 1072.59,-524 1072.59,-524 1072.59,-606 1072.59,-606 1072.59,-612 1066.59,-618 1060.59,-618 1060.59,-618 840.594,-618 840.594,-618 834.594,-618 828.594,-612 828.594,-606 828.594,-606 828.594,-524 828.594,-524 828.594,-518 834.594,-512 840.594,-512"/>
<text text-anchor="middle" x="950.594" y="-602.8" font-family="Times,serif" font-size="14.00">Mail</text>
<polyline fill="none" stroke="black" points="828.594,-595 1072.59,-595 "/>
<text text-anchor="start" x="836.594" y="-579.8" font-family="Times,serif" font-size="14.00">id :bigint</text>
<text text-anchor="start" x="836.594" y="-564.8" font-family="Times,serif" font-size="14.00">text :text</text>
<text text-anchor="start" x="836.594" y="-549.8" font-family="Times,serif" font-size="14.00">newsletter_id :bigint</text>
<text text-anchor="start" x="836.594" y="-534.8" font-family="Times,serif" font-size="14.00">created_at :timestamp without time zone</text>
<text text-anchor="start" x="836.594" y="-519.8" font-family="Times,serif" font-size="14.00">updated_at :timestamp without time zone</text>
</g>
<!-- ProductType -->
<g id="node3" class="node"><title>ProductType</title>
<path fill="none" stroke="black" d="M335.594,-820.5C335.594,-820.5 555.594,-820.5 555.594,-820.5 561.594,-820.5 567.594,-826.5 567.594,-832.5 567.594,-832.5 567.594,-899.5 567.594,-899.5 567.594,-905.5 561.594,-911.5 555.594,-911.5 555.594,-911.5 335.594,-911.5 335.594,-911.5 329.594,-911.5 323.594,-905.5 323.594,-899.5 323.594,-899.5 323.594,-832.5 323.594,-832.5 323.594,-826.5 329.594,-820.5 335.594,-820.5"/>
<text text-anchor="middle" x="445.594" y="-896.3" font-family="Times,serif" font-size="14.00">ProductType</text>
<polyline fill="none" stroke="black" points="323.594,-888.5 567.594,-888.5 "/>
<text text-anchor="start" x="331.594" y="-873.3" font-family="Times,serif" font-size="14.00">name :character varying(100)</text>
<text text-anchor="start" x="331.594" y="-858.3" font-family="Times,serif" font-size="14.00">description :text</text>
<text text-anchor="start" x="331.594" y="-843.3" font-family="Times,serif" font-size="14.00">created_at :timestamp without time zone</text>
<text text-anchor="start" x="331.594" y="-828.3" font-family="Times,serif" font-size="14.00">updated_at :timestamp without time zone</text>
</g>
<!-- Product -->
<g id="node4" class="node"><title>Product</title>
<path fill="none" stroke="black" d="M91.594,-489.5C91.594,-489.5 311.594,-489.5 311.594,-489.5 317.594,-489.5 323.594,-495.5 323.594,-501.5 323.594,-501.5 323.594,-628.5 323.594,-628.5 323.594,-634.5 317.594,-640.5 311.594,-640.5 311.594,-640.5 91.594,-640.5 91.594,-640.5 85.594,-640.5 79.594,-634.5 79.594,-628.5 79.594,-628.5 79.594,-501.5 79.594,-501.5 79.594,-495.5 85.594,-489.5 91.594,-489.5"/>
<text text-anchor="middle" x="201.594" y="-625.3" font-family="Times,serif" font-size="14.00">Product</text>
<polyline fill="none" stroke="black" points="79.594,-617.5 323.594,-617.5 "/>
<text text-anchor="start" x="87.594" y="-602.3" font-family="Times,serif" font-size="14.00">id :bigint</text>
<text text-anchor="start" x="87.594" y="-587.3" font-family="Times,serif" font-size="14.00">name :character varying(50)</text>
<text text-anchor="start" x="87.594" y="-572.3" font-family="Times,serif" font-size="14.00">description :text</text>
<text text-anchor="start" x="87.594" y="-557.3" font-family="Times,serif" font-size="14.00">price :numeric(15,2)</text>
<text text-anchor="start" x="87.594" y="-542.3" font-family="Times,serif" font-size="14.00">product_type_name :character varying</text>
<text text-anchor="start" x="87.594" y="-527.3" font-family="Times,serif" font-size="14.00">publisher_name :character varying</text>
<text text-anchor="start" x="87.594" y="-512.3" font-family="Times,serif" font-size="14.00">created_at :timestamp without time zone</text>
<text text-anchor="start" x="87.594" y="-497.3" font-family="Times,serif" font-size="14.00">updated_at :timestamp without time zone</text>
</g>
<!-- ProductType&#45;&gt;Product -->
<g id="edge1" class="edge"><title>ProductType&#45;&gt;Product</title>
<path fill="none" stroke="#d9bb2f" d="M315.943,-819.892C266.951,-802.567 222.393,-786.337 220.594,-784 191.945,-746.786 186.534,-694.678 188.599,-650.739"/>
<ellipse fill="none" stroke="#d9bb2f" cx="319.746" cy="-821.235" rx="4.00001" ry="4.00001"/>
<polygon fill="#d9bb2f" stroke="#d9bb2f" points="188.607,-650.612 193.702,-640.902 188.908,-645.621 189.21,-640.631 189.21,-640.631 189.21,-640.631 188.908,-645.621 184.718,-640.359 188.607,-650.612 188.607,-650.612"/>
</g>
<!-- Newsletter -->
<g id="node5" class="node"><title>Newsletter</title>
<path fill="none" stroke="black" d="M578.594,-677.5C578.594,-677.5 798.594,-677.5 798.594,-677.5 804.594,-677.5 810.594,-683.5 810.594,-689.5 810.594,-689.5 810.594,-771.5 810.594,-771.5 810.594,-777.5 804.594,-783.5 798.594,-783.5 798.594,-783.5 578.594,-783.5 578.594,-783.5 572.594,-783.5 566.594,-777.5 566.594,-771.5 566.594,-771.5 566.594,-689.5 566.594,-689.5 566.594,-683.5 572.594,-677.5 578.594,-677.5"/>
<text text-anchor="middle" x="688.594" y="-768.3" font-family="Times,serif" font-size="14.00">Newsletter</text>
<polyline fill="none" stroke="black" points="566.594,-760.5 810.594,-760.5 "/>
<text text-anchor="start" x="574.594" y="-745.3" font-family="Times,serif" font-size="14.00">id :bigint</text>
<text text-anchor="start" x="574.594" y="-730.3" font-family="Times,serif" font-size="14.00">title :character varying(200)</text>
<text text-anchor="start" x="574.594" y="-715.3" font-family="Times,serif" font-size="14.00">product_type_name :character varying</text>
<text text-anchor="start" x="574.594" y="-700.3" font-family="Times,serif" font-size="14.00">created_at :timestamp without time zone</text>
<text text-anchor="start" x="574.594" y="-685.3" font-family="Times,serif" font-size="14.00">updated_at :timestamp without time zone</text>
</g>
<!-- ProductType&#45;&gt;Newsletter -->
<g id="edge2" class="edge"><title>ProductType&#45;&gt;Newsletter</title>
<path fill="none" stroke="#dd497b" d="M533.928,-816.471C550.884,-807.155 568.774,-797.327 586.133,-787.79"/>
<ellipse fill="none" stroke="#dd497b" cx="530.353" cy="-818.435" rx="4.00002" ry="4.00002"/>
<ellipse fill="#dd497b" stroke="#dd497b" cx="590.029" cy="-785.65" rx="4.00002" ry="4.00002"/>
</g>
<!-- Order -->
<g id="node7" class="node"><title>Order</title>
<path fill="none" stroke="black" d="M495.094,-158.5C495.094,-158.5 732.094,-158.5 732.094,-158.5 738.094,-158.5 744.094,-164.5 744.094,-170.5 744.094,-170.5 744.094,-297.5 744.094,-297.5 744.094,-303.5 738.094,-309.5 732.094,-309.5 732.094,-309.5 495.094,-309.5 495.094,-309.5 489.094,-309.5 483.094,-303.5 483.094,-297.5 483.094,-297.5 483.094,-170.5 483.094,-170.5 483.094,-164.5 489.094,-158.5 495.094,-158.5"/>
<text text-anchor="middle" x="613.594" y="-294.3" font-family="Times,serif" font-size="14.00">Order</text>
<polyline fill="none" stroke="black" points="483.094,-286.5 744.094,-286.5 "/>
<text text-anchor="start" x="491.094" y="-271.3" font-family="Times,serif" font-size="14.00">id :bigint</text>
<text text-anchor="start" x="491.094" y="-256.3" font-family="Times,serif" font-size="14.00">payment_date :timestamp without time zone</text>
<text text-anchor="start" x="491.094" y="-241.3" font-family="Times,serif" font-size="14.00">price :numeric(15,2)</text>
<text text-anchor="start" x="491.094" y="-226.3" font-family="Times,serif" font-size="14.00">status :character varying</text>
<text text-anchor="start" x="491.094" y="-211.3" font-family="Times,serif" font-size="14.00">customer_id :bigint</text>
<text text-anchor="start" x="491.094" y="-196.3" font-family="Times,serif" font-size="14.00">card_number :character varying</text>
<text text-anchor="start" x="491.094" y="-181.3" font-family="Times,serif" font-size="14.00">created_at :timestamp without time zone</text>
<text text-anchor="start" x="491.094" y="-166.3" font-family="Times,serif" font-size="14.00">updated_at :timestamp without time zone</text>
</g>
<!-- Product&#45;&gt;Order -->
<g id="edge6" class="edge"><title>Product&#45;&gt;Order</title>
<path fill="none" stroke="#ee32fe" d="M185.851,-479.304C182.564,-434.086 187.686,-380.749 220.594,-346 259.642,-304.767 419.627,-327.679 473.594,-310 473.692,-309.968 473.791,-309.936 473.889,-309.903"/>
<polygon fill="#ee32fe" stroke="#ee32fe" points="185.864,-479.451 182.25,-489.804 186.298,-484.432 186.733,-489.413 186.733,-489.413 186.733,-489.413 186.298,-484.432 191.216,-489.022 185.864,-479.451 185.864,-479.451"/>
<polygon fill="#ee32fe" stroke="#ee32fe" points="473.613,-309.999 484.536,-310.964 478.335,-308.357 483.058,-306.714 483.058,-306.714 483.058,-306.714 478.335,-308.357 481.579,-302.464 473.613,-309.999 473.613,-309.999"/>
</g>
<!-- Wishlist -->
<g id="node11" class="node"><title>Wishlist</title>
<path fill="none" stroke="black" d="M241.594,-346.5C241.594,-346.5 461.594,-346.5 461.594,-346.5 467.594,-346.5 473.594,-352.5 473.594,-358.5 473.594,-358.5 473.594,-440.5 473.594,-440.5 473.594,-446.5 467.594,-452.5 461.594,-452.5 461.594,-452.5 241.594,-452.5 241.594,-452.5 235.594,-452.5 229.594,-446.5 229.594,-440.5 229.594,-440.5 229.594,-358.5 229.594,-358.5 229.594,-352.5 235.594,-346.5 241.594,-346.5"/>
<text text-anchor="middle" x="351.594" y="-437.3" font-family="Times,serif" font-size="14.00">Wishlist</text>
<polyline fill="none" stroke="black" points="229.594,-429.5 473.594,-429.5 "/>
<text text-anchor="start" x="237.594" y="-414.3" font-family="Times,serif" font-size="14.00">id :bigint</text>
<text text-anchor="start" x="237.594" y="-399.3" font-family="Times,serif" font-size="14.00">name :character varying</text>
<text text-anchor="start" x="237.594" y="-384.3" font-family="Times,serif" font-size="14.00">customer_id :bigint</text>
<text text-anchor="start" x="237.594" y="-369.3" font-family="Times,serif" font-size="14.00">created_at :timestamp without time zone</text>
<text text-anchor="start" x="237.594" y="-354.3" font-family="Times,serif" font-size="14.00">updated_at :timestamp without time zone</text>
</g>
<!-- Product&#45;&gt;Wishlist -->
<g id="edge4" class="edge"><title>Product&#45;&gt;Wishlist</title>
<path fill="none" stroke="#3b7599" d="M276.995,-481.813C283.71,-474.494 290.421,-467.179 296.912,-460.103"/>
<polygon fill="#3b7599" stroke="#3b7599" points="276.77,-482.058 266.694,-486.385 273.39,-485.742 270.01,-489.427 270.01,-489.427 270.01,-489.427 273.39,-485.742 273.326,-492.469 276.77,-482.058 276.77,-482.058"/>
<polygon fill="#3b7599" stroke="#3b7599" points="297.099,-459.9 307.175,-455.573 300.479,-456.215 303.859,-452.531 303.859,-452.531 303.859,-452.531 300.479,-456.215 300.543,-449.489 297.099,-459.9 297.099,-459.9"/>
</g>
<!-- OrdersProduct -->
<g id="node14" class="node"><title>OrdersProduct</title>
<path fill="none" stroke="black" d="M278.594,-0.5C278.594,-0.5 498.594,-0.5 498.594,-0.5 504.594,-0.5 510.594,-6.5 510.594,-12.5 510.594,-12.5 510.594,-109.5 510.594,-109.5 510.594,-115.5 504.594,-121.5 498.594,-121.5 498.594,-121.5 278.594,-121.5 278.594,-121.5 272.594,-121.5 266.594,-115.5 266.594,-109.5 266.594,-109.5 266.594,-12.5 266.594,-12.5 266.594,-6.5 272.594,-0.5 278.594,-0.5"/>
<text text-anchor="middle" x="388.594" y="-106.3" font-family="Times,serif" font-size="14.00">OrdersProduct</text>
<polyline fill="none" stroke="black" points="266.594,-98.5 510.594,-98.5 "/>
<text text-anchor="start" x="274.594" y="-83.3" font-family="Times,serif" font-size="14.00">amount :integer</text>
<text text-anchor="start" x="274.594" y="-68.3" font-family="Times,serif" font-size="14.00">price :numeric(15,2)</text>
<text text-anchor="start" x="274.594" y="-53.3" font-family="Times,serif" font-size="14.00">order_id :bigint</text>
<text text-anchor="start" x="274.594" y="-38.3" font-family="Times,serif" font-size="14.00">product_id :bigint</text>
<text text-anchor="start" x="274.594" y="-23.3" font-family="Times,serif" font-size="14.00">created_at :timestamp without time zone</text>
<text text-anchor="start" x="274.594" y="-8.3" font-family="Times,serif" font-size="14.00">updated_at :timestamp without time zone</text>
</g>
<!-- Product&#45;&gt;OrdersProduct -->
<g id="edge5" class="edge"><title>Product&#45;&gt;OrdersProduct</title>
<path fill="none" stroke="#10eea8" d="M178.756,-481.42C159.521,-392.954 144.663,-252.544 211.594,-158 223.745,-140.836 239.959,-126.438 257.655,-114.453"/>
<ellipse fill="none" stroke="#10eea8" cx="179.638" cy="-485.381" rx="4.00001" ry="4.00001"/>
<polygon fill="#10eea8" stroke="#10eea8" points="258.055,-114.195 268.895,-112.54 262.253,-111.479 266.45,-108.762 266.45,-108.762 266.45,-108.762 262.253,-111.479 264.006,-104.984 258.055,-114.195 258.055,-114.195"/>
</g>
<!-- WishlistProduct -->
<g id="node15" class="node"><title>WishlistProduct</title>
<ellipse fill="none" stroke="black" cx="67.594" cy="-399.5" rx="67.6881" ry="18"/>
<text text-anchor="middle" x="67.594" y="-395.8" font-family="Times,serif" font-size="14.00">WishlistProduct</text>
</g>
<!-- Product&#45;&gt;WishlistProduct -->
<g id="edge3" class="edge"><title>Product&#45;&gt;WishlistProduct</title>
<path fill="none" stroke="#bdd469" d="M135.288,-483.097C118.049,-462.062 100.748,-440.953 87.9522,-425.34"/>
<ellipse fill="none" stroke="#bdd469" cx="137.94" cy="-486.333" rx="4.00002" ry="4.00002"/>
<polygon fill="#bdd469" stroke="#bdd469" points="87.6747,-425.001 84.8163,-414.415 84.5053,-421.134 81.3358,-417.267 81.3358,-417.267 81.3358,-417.267 84.5053,-421.134 77.8554,-420.12 87.6747,-425.001 87.6747,-425.001"/>
</g>
<!-- Newsletter&#45;&gt;Mail -->
<g id="edge7" class="edge"><title>Newsletter&#45;&gt;Mail</title>
<path fill="none" stroke="#c9cfd8" d="M779.01,-673.077C804.617,-657.097 832.519,-639.684 858.239,-623.634"/>
<ellipse fill="none" stroke="#c9cfd8" cx="775.606" cy="-675.2" rx="4.00002" ry="4.00002"/>
<polygon fill="#c9cfd8" stroke="#c9cfd8" points="858.387,-623.541 869.253,-622.065 862.629,-620.894 866.871,-618.247 866.871,-618.247 866.871,-618.247 862.629,-620.894 864.489,-614.429 858.387,-623.541 858.387,-623.541"/>
</g>
<!-- Signup -->
<g id="node6" class="node"><title>Signup</title>
<path fill="none" stroke="black" d="M803.594,-346.5C803.594,-346.5 1023.59,-346.5 1023.59,-346.5 1029.59,-346.5 1035.59,-352.5 1035.59,-358.5 1035.59,-358.5 1035.59,-440.5 1035.59,-440.5 1035.59,-446.5 1029.59,-452.5 1023.59,-452.5 1023.59,-452.5 803.594,-452.5 803.594,-452.5 797.594,-452.5 791.594,-446.5 791.594,-440.5 791.594,-440.5 791.594,-358.5 791.594,-358.5 791.594,-352.5 797.594,-346.5 803.594,-346.5"/>
<text text-anchor="middle" x="913.594" y="-437.3" font-family="Times,serif" font-size="14.00">Signup</text>
<polyline fill="none" stroke="black" points="791.594,-429.5 1035.59,-429.5 "/>
<text text-anchor="start" x="799.594" y="-414.3" font-family="Times,serif" font-size="14.00">active :boolean</text>
<text text-anchor="start" x="799.594" y="-399.3" font-family="Times,serif" font-size="14.00">customer_id :bigint</text>
<text text-anchor="start" x="799.594" y="-384.3" font-family="Times,serif" font-size="14.00">newsletter_id :bigint</text>
<text text-anchor="start" x="799.594" y="-369.3" font-family="Times,serif" font-size="14.00">created_at :timestamp without time zone</text>
<text text-anchor="start" x="799.594" y="-354.3" font-family="Times,serif" font-size="14.00">updated_at :timestamp without time zone</text>
</g>
<!-- Newsletter&#45;&gt;Signup -->
<g id="edge8" class="edge"><title>Newsletter&#45;&gt;Signup</title>
<path fill="none" stroke="#4ac85e" d="M759.165,-671.068C767.621,-661.703 775.427,-651.584 781.594,-641 816.651,-580.834 784.376,-549.072 819.594,-489 825.528,-478.879 832.965,-469.196 841.042,-460.197"/>
<ellipse fill="none" stroke="#4ac85e" cx="756.254" cy="-674.187" rx="4.00002" ry="4.00002"/>
<polygon fill="#4ac85e" stroke="#4ac85e" points="841.128,-460.106 851.245,-455.877 844.543,-456.454 847.959,-452.803 847.959,-452.803 847.959,-452.803 844.543,-456.454 844.673,-449.729 841.128,-460.106 841.128,-460.106"/>
</g>
<!-- Customer -->
<g id="node9" class="node"><title>Customer</title>
<path fill="none" stroke="black" d="M540.594,-497C540.594,-497 760.594,-497 760.594,-497 766.594,-497 772.594,-503 772.594,-509 772.594,-509 772.594,-621 772.594,-621 772.594,-627 766.594,-633 760.594,-633 760.594,-633 540.594,-633 540.594,-633 534.594,-633 528.594,-627 528.594,-621 528.594,-621 528.594,-509 528.594,-509 528.594,-503 534.594,-497 540.594,-497"/>
<text text-anchor="middle" x="650.594" y="-617.8" font-family="Times,serif" font-size="14.00">Customer</text>
<polyline fill="none" stroke="black" points="528.594,-610 772.594,-610 "/>
<text text-anchor="start" x="536.594" y="-594.8" font-family="Times,serif" font-size="14.00">id :bigint</text>
<text text-anchor="start" x="536.594" y="-579.8" font-family="Times,serif" font-size="14.00">first_name :character varying(30)</text>
<text text-anchor="start" x="536.594" y="-564.8" font-family="Times,serif" font-size="14.00">last_name :character varying(30)</text>
<text text-anchor="start" x="536.594" y="-549.8" font-family="Times,serif" font-size="14.00">email :character varying(50)</text>
<text text-anchor="start" x="536.594" y="-534.8" font-family="Times,serif" font-size="14.00">phone_number :character varying(15)</text>
<text text-anchor="start" x="536.594" y="-519.8" font-family="Times,serif" font-size="14.00">created_at :timestamp without time zone</text>
<text text-anchor="start" x="536.594" y="-504.8" font-family="Times,serif" font-size="14.00">updated_at :timestamp without time zone</text>
</g>
<!-- Newsletter&#45;&gt;Customer -->
<g id="edge9" class="edge"><title>Newsletter&#45;&gt;Customer</title>
<path fill="none" stroke="#e36b12" d="M674.13,-667.266C672.291,-659.353 670.391,-651.181 668.506,-643.071"/>
<polygon fill="#e36b12" stroke="#e36b12" points="674.202,-667.578 672.083,-678.337 675.334,-672.448 676.466,-677.318 676.466,-677.318 676.466,-677.318 675.334,-672.448 680.849,-676.299 674.202,-667.578 674.202,-667.578"/>
<polygon fill="#e36b12" stroke="#e36b12" points="668.483,-642.97 670.602,-632.211 667.351,-638.1 666.219,-633.23 666.219,-633.23 666.219,-633.23 667.351,-638.1 661.836,-634.249 668.483,-642.97 668.483,-642.97"/>
</g>
<!-- Order&#45;&gt;OrdersProduct -->
<g id="edge10" class="edge"><title>Order&#45;&gt;OrdersProduct</title>
<path fill="none" stroke="#061cf0" d="M509.078,-153.568C497.698,-144.919 486.208,-136.187 475.078,-127.728"/>
<ellipse fill="none" stroke="#061cf0" cx="512.376" cy="-156.074" rx="4.00002" ry="4.00002"/>
<polygon fill="#061cf0" stroke="#061cf0" points="475.005,-127.673 469.767,-118.039 471.025,-124.647 467.044,-121.622 467.044,-121.622 467.044,-121.622 471.025,-124.647 464.321,-125.205 475.005,-127.673 475.005,-127.673"/>
</g>
<!-- Publisher -->
<g id="node8" class="node"><title>Publisher</title>
<path fill="none" stroke="black" d="M241.594,-685C241.594,-685 461.594,-685 461.594,-685 467.594,-685 473.594,-691 473.594,-697 473.594,-697 473.594,-764 473.594,-764 473.594,-770 467.594,-776 461.594,-776 461.594,-776 241.594,-776 241.594,-776 235.594,-776 229.594,-770 229.594,-764 229.594,-764 229.594,-697 229.594,-697 229.594,-691 235.594,-685 241.594,-685"/>
<text text-anchor="middle" x="351.594" y="-760.8" font-family="Times,serif" font-size="14.00">Publisher</text>
<polyline fill="none" stroke="black" points="229.594,-753 473.594,-753 "/>
<text text-anchor="start" x="237.594" y="-737.8" font-family="Times,serif" font-size="14.00">name :character varying(100)</text>
<text text-anchor="start" x="237.594" y="-722.8" font-family="Times,serif" font-size="14.00">description :text</text>
<text text-anchor="start" x="237.594" y="-707.8" font-family="Times,serif" font-size="14.00">created_at :timestamp without time zone</text>
<text text-anchor="start" x="237.594" y="-692.8" font-family="Times,serif" font-size="14.00">updated_at :timestamp without time zone</text>
</g>
<!-- Publisher&#45;&gt;Product -->
<g id="edge11" class="edge"><title>Publisher&#45;&gt;Product</title>
<path fill="none" stroke="#d970db" d="M304.944,-678.652C296.088,-668.999 286.614,-658.672 277.129,-648.333"/>
<ellipse fill="none" stroke="#d970db" cx="307.902" cy="-681.875" rx="4.00002" ry="4.00002"/>
<polygon fill="#d970db" stroke="#d970db" points="276.989,-648.181 273.545,-637.77 273.609,-644.496 270.229,-640.812 270.229,-640.812 270.229,-640.812 273.609,-644.496 266.913,-643.854 276.989,-648.181 276.989,-648.181"/>
</g>
<!-- Customer&#45;&gt;Signup -->
<g id="edge15" class="edge"><title>Customer&#45;&gt;Signup</title>
<path fill="none" stroke="#70ec05" d="M765.663,-492.465C784.145,-480.975 803.067,-469.212 820.937,-458.102"/>
<ellipse fill="none" stroke="#70ec05" cx="762.102" cy="-494.679" rx="4.00002" ry="4.00002"/>
<polygon fill="#70ec05" stroke="#70ec05" points="821.126,-457.985 831.994,-456.527 825.372,-455.345 829.619,-452.705 829.619,-452.705 829.619,-452.705 825.372,-455.345 827.243,-448.884 821.126,-457.985 821.126,-457.985"/>
</g>
<!-- Customer&#45;&gt;Order -->
<g id="edge14" class="edge"><title>Customer&#45;&gt;Order</title>
<path fill="none" stroke="#1b1b3f" d="M724.711,-490.129C732.813,-478.489 739.836,-465.982 744.594,-453 760.96,-408.349 764.588,-389.148 744.594,-346 739.893,-335.854 733.756,-326.299 726.707,-317.378"/>
<ellipse fill="none" stroke="#1b1b3f" cx="722.171" cy="-493.64" rx="4.00002" ry="4.00002"/>
<polygon fill="#1b1b3f" stroke="#1b1b3f" points="726.704,-317.375 723.742,-306.816 723.497,-313.539 720.289,-309.703 720.289,-309.703 720.289,-309.703 723.497,-313.539 716.837,-312.589 726.704,-317.375 726.704,-317.375"/>
</g>
<!-- Customer&#45;&gt;Wishlist -->
<g id="edge13" class="edge"><title>Customer&#45;&gt;Wishlist</title>
<path fill="none" stroke="#323ca5" d="M521.487,-493.401C499.509,-481.383 476.932,-469.038 455.704,-457.43"/>
<ellipse fill="none" stroke="#323ca5" cx="525.038" cy="-495.343" rx="4.00002" ry="4.00002"/>
<polygon fill="#323ca5" stroke="#323ca5" points="455.469,-457.301 448.854,-448.555 451.082,-454.902 446.695,-452.503 446.695,-452.503 446.695,-452.503 451.082,-454.902 444.536,-456.451 455.469,-457.301 455.469,-457.301"/>
</g>
<!-- Card -->
<g id="node12" class="node"><title>Card</title>
<path fill="none" stroke="black" d="M503.594,-354C503.594,-354 723.594,-354 723.594,-354 729.594,-354 735.594,-360 735.594,-366 735.594,-366 735.594,-433 735.594,-433 735.594,-439 729.594,-445 723.594,-445 723.594,-445 503.594,-445 503.594,-445 497.594,-445 491.594,-439 491.594,-433 491.594,-433 491.594,-366 491.594,-366 491.594,-360 497.594,-354 503.594,-354"/>
<text text-anchor="middle" x="613.594" y="-429.8" font-family="Times,serif" font-size="14.00">Card</text>
<polyline fill="none" stroke="black" points="491.594,-422 735.594,-422 "/>
<text text-anchor="start" x="499.594" y="-406.8" font-family="Times,serif" font-size="14.00">number :character varying</text>
<text text-anchor="start" x="499.594" y="-391.8" font-family="Times,serif" font-size="14.00">created_at :timestamp without time zone</text>
<text text-anchor="start" x="499.594" y="-376.8" font-family="Times,serif" font-size="14.00">updated_at :timestamp without time zone</text>
<text text-anchor="start" x="499.594" y="-361.8" font-family="Times,serif" font-size="14.00">customer_id :bigint</text>
</g>
<!-- Customer&#45;&gt;Card -->
<g id="edge12" class="edge"><title>Customer&#45;&gt;Card</title>
<path fill="none" stroke="#b71e28" d="M633.49,-488.421C630.967,-477.271 628.409,-465.968 626.006,-455.347"/>
<ellipse fill="none" stroke="#b71e28" cx="634.448" cy="-492.653" rx="4.00001" ry="4.00001"/>
<polygon fill="#b71e28" stroke="#b71e28" points="625.962,-455.153 628.144,-444.407 624.859,-450.277 623.755,-445.4 623.755,-445.4 623.755,-445.4 624.859,-450.277 619.366,-446.393 625.962,-455.153 625.962,-455.153"/>
</g>
<!-- WishlistsProduct -->
<g id="node10" class="node"><title>WishlistsProduct</title>
<path fill="none" stroke="black" d="M232.594,-181C232.594,-181 452.594,-181 452.594,-181 458.594,-181 464.594,-187 464.594,-193 464.594,-193 464.594,-275 464.594,-275 464.594,-281 458.594,-287 452.594,-287 452.594,-287 232.594,-287 232.594,-287 226.594,-287 220.594,-281 220.594,-275 220.594,-275 220.594,-193 220.594,-193 220.594,-187 226.594,-181 232.594,-181"/>
<text text-anchor="middle" x="342.594" y="-271.8" font-family="Times,serif" font-size="14.00">WishlistsProduct</text>
<polyline fill="none" stroke="black" points="220.594,-264 464.594,-264 "/>
<text text-anchor="start" x="228.594" y="-248.8" font-family="Times,serif" font-size="14.00">order :integer</text>
<text text-anchor="start" x="228.594" y="-233.8" font-family="Times,serif" font-size="14.00">product_id :bigint</text>
<text text-anchor="start" x="228.594" y="-218.8" font-family="Times,serif" font-size="14.00">wishlist_id :bigint</text>
<text text-anchor="start" x="228.594" y="-203.8" font-family="Times,serif" font-size="14.00">created_at :timestamp without time zone</text>
<text text-anchor="start" x="228.594" y="-188.8" font-family="Times,serif" font-size="14.00">updated_at :timestamp without time zone</text>
</g>
<!-- Wishlist&#45;&gt;WishlistsProduct -->
<g id="edge16" class="edge"><title>Wishlist&#45;&gt;WishlistsProduct</title>
<path fill="none" stroke="#fdb44c" d="M348.276,-338.223C347.542,-324.893 346.763,-310.742 346.025,-297.332"/>
<ellipse fill="none" stroke="#fdb44c" cx="348.502" cy="-342.324" rx="4" ry="4"/>
<polygon fill="#fdb44c" stroke="#fdb44c" points="346.02,-297.232 349.963,-287 345.745,-292.239 345.47,-287.247 345.47,-287.247 345.47,-287.247 345.745,-292.239 340.977,-287.494 346.02,-297.232 346.02,-297.232"/>
</g>
<!-- Card&#45;&gt;Order -->
<g id="edge17" class="edge"><title>Card&#45;&gt;Order</title>
<path fill="none" stroke="#9b2aeb" d="M613.594,-345.661C613.594,-337.439 613.594,-328.769 613.594,-320.048"/>
<ellipse fill="none" stroke="#9b2aeb" cx="613.594" cy="-349.823" rx="4" ry="4"/>
<polygon fill="#9b2aeb" stroke="#9b2aeb" points="613.594,-319.812 618.094,-309.812 613.594,-314.812 613.594,-309.812 613.594,-309.812 613.594,-309.812 613.594,-314.812 609.094,-309.812 613.594,-319.812 613.594,-319.812"/>
</g>
<!-- ApplicationRecord -->
<g id="node13" class="node"><title>ApplicationRecord</title>
<ellipse fill="none" stroke="black" cx="662.594" cy="-866" rx="77.1866" ry="18"/>
<text text-anchor="middle" x="662.594" y="-862.3" font-family="Times,serif" font-size="14.00">ApplicationRecord</text>
</g>
</g>
</svg>
