<?xml version="1.0" encoding="UTF-8" standalone="no"?>
<!DOCTYPE svg PUBLIC "-//W3C//DTD SVG 1.1//EN"
 "http://www.w3.org/Graphics/SVG/1.1/DTD/svg11.dtd">
<!-- Generated by graphviz version 2.38.0 (20140413.2041)
 -->
<!-- Title: models_diagram Pages: 1 -->
<svg width="544pt" height="446pt"
 viewBox="0.00 0.00 543.94 446.00" xmlns="http://www.w3.org/2000/svg" xmlns:xlink="http://www.w3.org/1999/xlink">
<g id="graph0" class="graph" transform="scale(1 1) rotate(0) translate(4 442)">
<title>models_diagram</title>
<polygon fill="none" stroke="none" points="-4,4 -4,-442 539.937,-442 539.937,4 -4,4"/>
<!-- _diagram_info -->
<g id="node1" class="node"><title>_diagram_info</title>
<text text-anchor="start" x="27.594" y="-423.6" font-family="Times,serif" font-size="13.00">Models diagram</text>
<text text-anchor="start" x="27.594" y="-409.6" font-family="Times,serif" font-size="13.00">Date: Dec 15 2018 &#45; 16:56</text>
<text text-anchor="start" x="27.594" y="-395.6" font-family="Times,serif" font-size="13.00">Migration version: 20181215151249</text>
<text text-anchor="start" x="27.594" y="-381.6" font-family="Times,serif" font-size="13.00">Generated by RailRoady 1.5.3</text>
<text text-anchor="start" x="27.594" y="-367.6" font-family="Times,serif" font-size="13.00">http://railroady.prestonlee.com</text>
</g>
<!-- Mail -->
<g id="node2" class="node"><title>Mail</title>
<ellipse fill="none" stroke="black" cx="498.594" cy="-234" rx="27.8951" ry="18"/>
<text text-anchor="middle" x="498.594" y="-230.3" font-family="Times,serif" font-size="14.00">Mail</text>
</g>
<!-- ProductType -->
<g id="node3" class="node"><title>ProductType</title>
<ellipse fill="none" stroke="black" cx="307.594" cy="-399" rx="55.7903" ry="18"/>
<text text-anchor="middle" x="307.594" y="-395.3" font-family="Times,serif" font-size="14.00">ProductType</text>
</g>
<!-- Product -->
<g id="node4" class="node"><title>Product</title>
<ellipse fill="none" stroke="black" cx="201.594" cy="-234" rx="38.1938" ry="18"/>
<text text-anchor="middle" x="201.594" y="-230.3" font-family="Times,serif" font-size="14.00">Product</text>
</g>
<!-- ProductType&#45;&gt;Product -->
<g id="edge1" class="edge"><title>ProductType&#45;&gt;Product</title>
<path fill="none" stroke="#eec9bf" d="M275.112,-378.231C256.35,-365.137 233.9,-346.291 220.594,-324 209.424,-305.288 204.775,-280.903 202.863,-262.391"/>
<ellipse fill="none" stroke="#eec9bf" cx="278.524" cy="-380.545" rx="4.00002" ry="4.00002"/>
<polygon fill="#eec9bf" stroke="#eec9bf" points="202.849,-262.223 206.509,-251.886 202.437,-257.24 202.025,-252.257 202.025,-252.257 202.025,-252.257 202.437,-257.24 197.54,-252.628 202.849,-262.223 202.849,-262.223"/>
</g>
<!-- Newsletter -->
<g id="node5" class="node"><title>Newsletter</title>
<ellipse fill="none" stroke="black" cx="413.594" cy="-306" rx="48.9926" ry="18"/>
<text text-anchor="middle" x="413.594" y="-302.3" font-family="Times,serif" font-size="14.00">Newsletter</text>
</g>
<!-- ProductType&#45;&gt;Newsletter -->
<g id="edge2" class="edge"><title>ProductType&#45;&gt;Newsletter</title>
<path fill="none" stroke="#8087fa" d="M332.764,-376.392C349.69,-361.861 371.902,-342.792 388.758,-328.321"/>
<ellipse fill="none" stroke="#8087fa" cx="329.58" cy="-379.125" rx="4.00002" ry="4.00002"/>
<ellipse fill="#8087fa" stroke="#8087fa" cx="392.127" cy="-325.429" rx="4.00002" ry="4.00002"/>
</g>
<!-- Order -->
<g id="node7" class="node"><title>Order</title>
<ellipse fill="none" stroke="black" cx="383.594" cy="-90" rx="31.3957" ry="18"/>
<text text-anchor="middle" x="383.594" y="-86.3" font-family="Times,serif" font-size="14.00">Order</text>
</g>
<!-- Product&#45;&gt;Order -->
<g id="edge6" class="edge"><title>Product&#45;&gt;Order</title>
<path fill="none" stroke="#532f40" d="M200.464,-205.809C201.136,-186.257 205.285,-160.529 220.594,-144 259.009,-102.523 289.297,-126.853 342.594,-108 345.009,-107.146 347.489,-106.226 349.976,-105.273"/>
<polygon fill="#532f40" stroke="#532f40" points="200.463,-205.937 195.899,-215.908 200.431,-210.937 200.399,-215.937 200.399,-215.937 200.399,-215.937 200.431,-210.937 204.899,-215.966 200.463,-205.937 200.463,-205.937"/>
<polygon fill="#532f40" stroke="#532f40" points="350.184,-105.191 361.139,-105.68 354.831,-103.344 359.478,-101.498 359.478,-101.498 359.478,-101.498 354.831,-103.344 357.816,-97.3161 350.184,-105.191 350.184,-105.191"/>
</g>
<!-- Wishlist -->
<g id="node11" class="node"><title>Wishlist</title>
<ellipse fill="none" stroke="black" cx="269.594" cy="-162" rx="40.0939" ry="18"/>
<text text-anchor="middle" x="269.594" y="-158.3" font-family="Times,serif" font-size="14.00">Wishlist</text>
</g>
<!-- Product&#45;&gt;Wishlist -->
<g id="edge4" class="edge"><title>Product&#45;&gt;Wishlist</title>
<path fill="none" stroke="#c4e62c" d="M224.215,-209.713C231.607,-202.104 239.809,-193.661 247.185,-186.068"/>
<polygon fill="#c4e62c" stroke="#c4e62c" points="223.992,-209.943 213.796,-213.98 220.508,-213.53 217.024,-217.116 217.024,-217.116 217.024,-217.116 220.508,-213.53 220.252,-220.251 223.992,-209.943 223.992,-209.943"/>
<polygon fill="#c4e62c" stroke="#c4e62c" points="247.257,-185.994 257.453,-181.957 250.741,-182.408 254.225,-178.821 254.225,-178.821 254.225,-178.821 250.741,-182.408 250.997,-175.686 247.257,-185.994 247.257,-185.994"/>
</g>
<!-- OrdersProduct -->
<g id="node14" class="node"><title>OrdersProduct</title>
<ellipse fill="none" stroke="black" cx="273.594" cy="-18" rx="61.99" ry="18"/>
<text text-anchor="middle" x="273.594" y="-14.3" font-family="Times,serif" font-size="14.00">OrdersProduct</text>
</g>
<!-- Product&#45;&gt;OrdersProduct -->
<g id="edge5" class="edge"><title>Product&#45;&gt;OrdersProduct</title>
<path fill="none" stroke="#f9531f" d="M190.149,-208.707C176.317,-175.501 157.792,-115.147 182.594,-72 191.734,-56.0998 207.683,-44.5226 223.702,-36.322"/>
<ellipse fill="none" stroke="#f9531f" cx="191.775" cy="-212.474" rx="4.00002" ry="4.00002"/>
<polygon fill="#f9531f" stroke="#f9531f" points="224.053,-36.156 235.017,-35.9437 228.572,-34.0163 233.091,-31.8766 233.091,-31.8766 233.091,-31.8766 228.572,-34.0163 231.166,-27.8094 224.053,-36.156 224.053,-36.156"/>
</g>
<!-- WishlistProduct -->
<g id="node15" class="node"><title>WishlistProduct</title>
<ellipse fill="none" stroke="black" cx="67.594" cy="-162" rx="67.6881" ry="18"/>
<text text-anchor="middle" x="67.594" y="-158.3" font-family="Times,serif" font-size="14.00">WishlistProduct</text>
</g>
<!-- Product&#45;&gt;WishlistProduct -->
<g id="edge3" class="edge"><title>Product&#45;&gt;WishlistProduct</title>
<path fill="none" stroke="#8d4bb9" d="M169.841,-216.413C150.744,-206.436 126.304,-193.669 106.108,-183.119"/>
<ellipse fill="none" stroke="#8d4bb9" cx="173.471" cy="-218.309" rx="4.00002" ry="4.00002"/>
<polygon fill="#8d4bb9" stroke="#8d4bb9" points="106.025,-183.076 99.2452,-174.457 101.593,-180.761 97.1616,-178.446 97.1616,-178.446 97.1616,-178.446 101.593,-180.761 95.078,-182.434 106.025,-183.076 106.025,-183.076"/>
</g>
<!-- Newsletter&#45;&gt;Mail -->
<g id="edge7" class="edge"><title>Newsletter&#45;&gt;Mail</title>
<path fill="none" stroke="#c35558" d="M439.411,-283.739C450.428,-274.666 463.221,-264.13 474.09,-255.18"/>
<ellipse fill="none" stroke="#c35558" cx="435.97" cy="-286.573" rx="4.00002" ry="4.00002"/>
<polygon fill="#c35558" stroke="#c35558" points="474.245,-255.053 484.825,-252.169 478.104,-251.874 481.964,-248.695 481.964,-248.695 481.964,-248.695 478.104,-251.874 479.103,-245.222 474.245,-255.053 474.245,-255.053"/>
</g>
<!-- Signup -->
<g id="node6" class="node"><title>Signup</title>
<ellipse fill="none" stroke="black" cx="475.594" cy="-162" rx="35.9954" ry="18"/>
<text text-anchor="middle" x="475.594" y="-158.3" font-family="Times,serif" font-size="14.00">Signup</text>
</g>
<!-- Newsletter&#45;&gt;Signup -->
<g id="edge8" class="edge"><title>Newsletter&#45;&gt;Signup</title>
<path fill="none" stroke="#ae7d41" d="M424.266,-280.557C435.403,-255.05 452.799,-215.207 464.198,-189.1"/>
<ellipse fill="none" stroke="#ae7d41" cx="422.55" cy="-284.487" rx="4.00002" ry="4.00002"/>
<polygon fill="#ae7d41" stroke="#ae7d41" points="464.246,-188.99 472.372,-181.626 466.247,-184.407 468.248,-179.825 468.248,-179.825 468.248,-179.825 466.247,-184.407 464.124,-178.024 464.246,-188.99 464.246,-188.99"/>
</g>
<!-- Customer -->
<g id="node9" class="node"><title>Customer</title>
<ellipse fill="none" stroke="black" cx="369.594" cy="-234" rx="45.4919" ry="18"/>
<text text-anchor="middle" x="369.594" y="-230.3" font-family="Times,serif" font-size="14.00">Customer</text>
</g>
<!-- Newsletter&#45;&gt;Customer -->
<g id="edge9" class="edge"><title>Newsletter&#45;&gt;Customer</title>
<path fill="none" stroke="#aafbed" d="M397.829,-279.92C393.91,-273.685 389.703,-266.992 385.765,-260.727"/>
<polygon fill="#aafbed" stroke="#aafbed" points="397.845,-279.945 399.357,-290.806 400.506,-284.178 403.167,-288.411 403.167,-288.411 403.167,-288.411 400.506,-284.178 406.976,-286.016 397.845,-279.945 397.845,-279.945"/>
<polygon fill="#aafbed" stroke="#aafbed" points="385.574,-260.423 384.062,-249.561 382.913,-256.189 380.252,-251.956 380.252,-251.956 380.252,-251.956 382.913,-256.189 376.442,-254.351 385.574,-260.423 385.574,-260.423"/>
</g>
<!-- Order&#45;&gt;OrdersProduct -->
<g id="edge10" class="edge"><title>Order&#45;&gt;OrdersProduct</title>
<path fill="none" stroke="#0d9e96" d="M356.628,-71.8398C341.584,-62.2665 322.721,-50.2629 306.778,-40.1168"/>
<ellipse fill="none" stroke="#0d9e96" cx="360.044" cy="-74.0134" rx="4.00002" ry="4.00002"/>
<polygon fill="#0d9e96" stroke="#0d9e96" points="306.7,-40.0673 300.679,-30.902 302.481,-37.3829 298.263,-34.6985 298.263,-34.6985 298.263,-34.6985 302.481,-37.3829 295.847,-38.495 306.7,-40.0673 306.7,-40.0673"/>
</g>
<!-- Publisher -->
<g id="node8" class="node"><title>Publisher</title>
<ellipse fill="none" stroke="black" cx="273.594" cy="-306" rx="44.393" ry="18"/>
<text text-anchor="middle" x="273.594" y="-302.3" font-family="Times,serif" font-size="14.00">Publisher</text>
</g>
<!-- Publisher&#45;&gt;Product -->
<g id="edge11" class="edge"><title>Publisher&#45;&gt;Product</title>
<path fill="none" stroke="#117e6b" d="M251.467,-283.487C243.165,-275.416 233.7,-266.214 225.264,-258.012"/>
<ellipse fill="none" stroke="#117e6b" cx="254.388" cy="-286.328" rx="4.00002" ry="4.00002"/>
<polygon fill="#117e6b" stroke="#117e6b" points="225.037,-257.792 221.004,-247.595 221.452,-254.307 217.867,-250.821 217.867,-250.821 217.867,-250.821 221.452,-254.307 214.73,-254.048 225.037,-257.792 225.037,-257.792"/>
</g>
<!-- Customer&#45;&gt;Signup -->
<g id="edge15" class="edge"><title>Customer&#45;&gt;Signup</title>
<path fill="none" stroke="#39710f" d="M398.853,-213.678C413.491,-204.011 431.174,-192.334 445.875,-182.626"/>
<ellipse fill="none" stroke="#39710f" cx="395.412" cy="-215.951" rx="4.00002" ry="4.00002"/>
<polygon fill="#39710f" stroke="#39710f" points="446.244,-182.382 457.068,-180.627 450.416,-179.627 454.588,-176.872 454.588,-176.872 454.588,-176.872 450.416,-179.627 452.109,-173.116 446.244,-182.382 446.244,-182.382"/>
</g>
<!-- Customer&#45;&gt;Order -->
<g id="edge14" class="edge"><title>Customer&#45;&gt;Order</title>
<path fill="none" stroke="#e0f0dc" d="M382.658,-208.619C386.678,-199.852 390.575,-189.723 392.594,-180 396.876,-159.378 394.095,-135.627 390.533,-117.851"/>
<ellipse fill="none" stroke="#e0f0dc" cx="380.872" cy="-212.324" rx="4.00002" ry="4.00002"/>
<polygon fill="#e0f0dc" stroke="#e0f0dc" points="390.49,-117.654 392.726,-106.919 389.411,-112.772 388.332,-107.89 388.332,-107.89 388.332,-107.89 389.411,-112.772 383.938,-108.861 390.49,-117.654 390.49,-117.654"/>
</g>
<!-- Customer&#45;&gt;Wishlist -->
<g id="edge13" class="edge"><title>Customer&#45;&gt;Wishlist</title>
<path fill="none" stroke="#9d14a7" d="M341.24,-213.152C328.015,-203.895 312.287,-192.885 298.941,-183.543"/>
<ellipse fill="none" stroke="#9d14a7" cx="344.619" cy="-215.517" rx="4.00002" ry="4.00002"/>
<polygon fill="#9d14a7" stroke="#9d14a7" points="298.757,-183.414 293.145,-173.993 294.661,-180.547 290.565,-177.68 290.565,-177.68 290.565,-177.68 294.661,-180.547 287.984,-181.366 298.757,-183.414 298.757,-183.414"/>
</g>
<!-- Card -->
<g id="node12" class="node"><title>Card</title>
<ellipse fill="none" stroke="black" cx="355.594" cy="-162" rx="27.8951" ry="18"/>
<text text-anchor="middle" x="355.594" y="-158.3" font-family="Times,serif" font-size="14.00">Card</text>
</g>
<!-- Customer&#45;&gt;Card -->
<g id="edge12" class="edge"><title>Customer&#45;&gt;Card</title>
<path fill="none" stroke="#9b6b05" d="M364.522,-207.64C363.378,-201.92 362.16,-195.828 361.002,-190.042"/>
<ellipse fill="none" stroke="#9b6b05" cx="365.349" cy="-211.774" rx="4.00001" ry="4.00001"/>
<polygon fill="#9b6b05" stroke="#9b6b05" points="360.976,-189.91 363.427,-179.222 359.995,-185.007 359.015,-180.104 359.015,-180.104 359.015,-180.104 359.995,-185.007 354.602,-180.987 360.976,-189.91 360.976,-189.91"/>
</g>
<!-- WishlistsProduct -->
<g id="node10" class="node"><title>WishlistsProduct</title>
<ellipse fill="none" stroke="black" cx="262.594" cy="-90" rx="71.4873" ry="18"/>
<text text-anchor="middle" x="262.594" y="-86.3" font-family="Times,serif" font-size="14.00">WishlistsProduct</text>
</g>
<!-- Wishlist&#45;&gt;WishlistsProduct -->
<g id="edge16" class="edge"><title>Wishlist&#45;&gt;WishlistsProduct</title>
<path fill="none" stroke="#48daa1" d="M267.058,-135.64C266.5,-130.063 265.907,-124.132 265.342,-118.476"/>
<ellipse fill="none" stroke="#48daa1" cx="267.466" cy="-139.716" rx="4" ry="4"/>
<polygon fill="#48daa1" stroke="#48daa1" points="265.3,-118.055 268.782,-107.657 264.802,-113.08 264.304,-108.104 264.304,-108.104 264.304,-108.104 264.802,-113.08 259.827,-108.552 265.3,-118.055 265.3,-118.055"/>
</g>
<!-- Card&#45;&gt;Order -->
<g id="edge17" class="edge"><title>Card&#45;&gt;Order</title>
<path fill="none" stroke="#aedb71" d="M365.283,-136.778C367.776,-130.544 370.472,-123.805 373.009,-117.463"/>
<ellipse fill="none" stroke="#aedb71" cx="363.715" cy="-140.697" rx="4.00001" ry="4.00001"/>
<polygon fill="#aedb71" stroke="#aedb71" points="373.098,-117.241 380.99,-109.627 374.955,-112.599 376.812,-107.956 376.812,-107.956 376.812,-107.956 374.955,-112.599 372.633,-106.285 373.098,-117.241 373.098,-117.241"/>
</g>
<!-- ApplicationRecord -->
<g id="node13" class="node"><title>ApplicationRecord</title>
<ellipse fill="none" stroke="black" cx="458.594" cy="-399" rx="77.1866" ry="18"/>
<text text-anchor="middle" x="458.594" y="-395.3" font-family="Times,serif" font-size="14.00">ApplicationRecord</text>
</g>
</g>
</svg>
